<?xml version="1.0" standalone="no"?>
<!DOCTYPE svg PUBLIC "-//W3C//DTD SVG 20010904//EN"
 "http://www.w3.org/TR/2001/REC-SVG-20010904/DTD/svg10.dtd">
<svg version="1.0" xmlns="http://www.w3.org/2000/svg"
 width="258.000000pt" height="442.000000pt" viewBox="0 0 258.000000 442.000000"
 preserveAspectRatio="xMidYMid meet">

<g transform="translate(0.000000,442.000000) scale(0.100000,-0.100000)"
fill="#000000" stroke="none">
<path d="M1146 4359 c-57 -44 -22 -107 72 -129 57 -13 66 -21 57 -49 -12 -39
-105 -34 -105 4 0 20 -39 19 -47 -1 -10 -26 39 -66 88 -71 122 -12 163 120 49
156 -82 25 -92 31 -88 49 4 23 76 30 84 8 8 -21 54 -21 54 -1 0 53 -111 76
-164 34z"/>
<path d="M1584 4324 c-60 -29 -93 -132 -62 -198 15 -34 90 -70 126 -61 31 8
62 33 62 50 0 21 -32 27 -50 10 -22 -20 -64 -19 -84 1 -30 29 -13 134 24 154
41 22 100 -1 100 -38 0 -7 12 -12 26 -12 24 0 25 3 19 27 -9 36 -19 48 -59 67
-42 20 -62 20 -102 0z"/>
<path d="M780 4269 c-65 -26 -87 -76 -51 -120 17 -22 27 -24 97 -24 65 0 79
-3 82 -16 8 -41 -66 -73 -99 -43 -18 16 -21 17 -36 1 -16 -15 -15 -18 2 -37
12 -14 31 -20 58 -20 76 0 140 65 118 121 -16 44 -35 51 -113 48 -67 -4 -73
-2 -76 17 -4 29 39 51 73 36 24 -11 55 -7 55 8 0 4 -8 14 -18 23 -21 19 -54
21 -92 6z"/>
<path d="M1988 4152 c-8 -9 -32 -48 -54 -87 -67 -120 -68 -123 -54 -140 19
-23 34 -19 112 30 40 25 74 41 76 37 1 -5 -16 -44 -39 -86 -41 -76 -41 -78
-23 -97 19 -18 21 -17 127 52 59 39 107 77 107 84 0 30 -33 22 -96 -21 -36
-26 -68 -44 -71 -41 -3 3 12 38 33 77 31 56 36 74 28 88 -18 28 -38 25 -108
-19 -37 -23 -69 -39 -72 -36 -3 2 13 35 35 71 45 74 47 79 28 95 -11 8 -18 7
-29 -7z"/>
<path d="M1387 4141 c-6 -24 0 -31 25 -31 14 0 19 6 16 22 -4 29 -34 36 -41 9z"/>
<path d="M1026 4121 c-10 -16 6 -42 21 -37 8 3 17 6 19 6 2 0 4 9 4 20 0 21
-33 29 -44 11z"/>
<path d="M405 3985 c-31 -36 -55 -69 -53 -74 4 -13 177 -161 188 -161 15 0
132 139 125 150 -12 20 -30 10 -77 -42 l-47 -53 -27 27 -27 26 41 49 c36 41
40 50 27 62 -12 12 -20 7 -59 -35 l-45 -49 -22 22 -22 22 41 45 c42 46 53 76
28 76 -7 0 -39 -29 -71 -65z"/>
<path d="M1754 4035 c-7 -18 3 -35 21 -35 18 0 28 32 13 42 -19 11 -28 10 -34
-7z"/>
<path d="M708 3968 c-14 -11 -15 -16 -4 -30 11 -15 15 -16 32 -3 17 12 17 15
4 29 -13 13 -19 14 -32 4z"/>
<path d="M2076 3731 c-7 -10 3 -41 13 -41 17 1 33 20 28 34 -7 17 -32 22 -41
7z"/>
<path d="M465 3690 c-11 -36 26 -59 39 -24 8 22 8 22 -13 34 -16 8 -21 6 -26
-10z"/>
<path d="M2260 3679 c-103 -35 -124 -56 -117 -118 7 -59 35 -95 78 -99 19 -2
73 9 122 24 68 22 87 32 87 46 0 29 -20 30 -99 3 -100 -34 -125 -33 -141 4
-20 48 -2 65 100 97 78 24 90 31 88 49 -4 28 -22 28 -118 -6z"/>
<path d="M192 3596 c-27 -90 -27 -106 -4 -106 13 0 22 13 31 50 7 28 16 50 20
50 4 0 36 -38 70 -84 34 -46 71 -86 83 -89 12 -4 23 -5 23 -4 1 1 12 40 24 87
12 47 24 93 27 103 4 12 0 17 -15 17 -16 0 -24 -12 -38 -62 -10 -34 -23 -63
-28 -64 -6 -2 -37 36 -71 84 -80 115 -94 117 -122 18z"/>
<path d="M1100 3084 c-41 -13 -94 -24 -117 -24 l-43 0 0 -180 0 -180 25 -6
c16 -4 58 4 109 20 46 14 107 26 135 26 l51 0 -2 183 -3 182 -40 2 c-22 1 -74
-9 -115 -23z"/>
<path d="M1340 2925 l0 -185 46 0 c25 0 83 -12 129 -26 46 -14 93 -24 106 -22
l24 3 3 181 2 181 -57 6 c-32 3 -87 15 -122 26 -35 12 -79 21 -97 21 l-34 0 0
-185z"/>
<path d="M787 2504 c-10 -48 -41 -88 -119 -154 -88 -75 -125 -121 -139 -172
-9 -36 -8 -41 23 -78 98 -115 164 -189 169 -189 14 -2 50 40 103 121 61 93 95
127 159 160 l41 20 107 -113 c60 -63 111 -122 114 -132 5 -13 -9 -35 -52 -80
-102 -109 -330 -351 -357 -380 -31 -33 -32 -39 -7 -61 20 -18 24 -16 177 154
153 170 288 310 295 308 4 -2 105 -110 224 -241 208 -228 218 -237 236 -221
11 9 19 21 19 26 0 5 -99 115 -221 244 -121 128 -219 238 -217 244 3 11 219
250 225 250 2 0 25 -11 51 -24 57 -29 93 -67 159 -166 28 -41 60 -83 71 -94
21 -18 22 -18 65 30 132 146 157 178 157 199 0 46 -47 110 -136 185 -65 55
-96 90 -116 128 -26 52 -27 53 -45 35 -10 -11 -85 -91 -168 -179 -82 -87 -186
-197 -230 -242 l-81 -84 -215 229 c-118 125 -231 246 -250 267 l-36 39 -6 -29z"/>
<path d="M974 1436 c-61 -41 -119 -106 -145 -161 -17 -37 -19 -74 -19 -532 0
-324 4 -501 11 -520 29 -78 116 -124 247 -131 l92 -5 0 248 0 247 30 28 c68
63 192 62 251 -3 l29 -31 2 -241 3 -240 60 -3 c76 -4 131 23 189 92 l41 48 3
499 c2 315 -1 514 -8 537 -5 21 -26 57 -46 80 -43 51 -150 126 -165 116 -8 -4
-10 -100 -7 -308 l3 -301 -40 0 -40 0 -3 115 c-3 121 -6 130 -52 130 -44 0
-50 -16 -50 -137 l0 -113 -54 0 c-64 0 -62 -3 -65 131 -1 52 -6 98 -11 103
-10 10 -74 11 -89 1 -7 -3 -11 -41 -11 -89 0 -46 -3 -98 -6 -115 -6 -27 -11
-31 -39 -31 l-32 0 -6 197 c-4 108 -7 247 -7 310 0 62 -3 113 -8 113 -4 0 -30
-15 -58 -34z"/>
</g>
</svg>
